{"title":"Casino Jack 2010 DVDRip XVID AC3 HQ Hive-CM8","uid":5971917,"size":1759357484,"categoryP":"video","categoryS":"movies","magnet":"?xt=urn:btih:925603a88098841f2f13f9b077e2911c0a4873d5&amp;dn=Casino+Jack+2010+DVDRip+XVID+AC3+HQ+Hive-CM8&amp;tr=udp%3A%2F%2Ftracker.openbittorrent.com%3A80&amp;tr=udp%3A%2F%2Fopen.demonii.com%3A1337&amp;tr=udp%3A%2F%2Ftracker.coppersurfer.tk%3A6969&amp;tr=udp%3A%2F%2Fexodus.desync.com%3A6969","seeders":1,"leechers":0,"uploader":"deffjam555","files":120,"time":1290322914,"description":"A hot shot Washington DC lobbyist and his protÃƒÆ’Ã‚Â©gÃƒÆ’Ã‚Â© go down hard\nas their schemes to peddle influence lead to corruption and murder.\n\nKevin Spacey - Jack Abramoff\nKelly Preston - Pam Abramoff\nBarry Pepper - Michael Scanlon\nRachelle Lefevre - Emily\nJon Lovitz - Adam Kidan\nEric Schweig - Chief Poncho\nYannick Bisson - Oscar Carillo\nMaury Chaykin - Big Tony\nChristian Campbell - Ralph Reed &lt;a href=&quot;\nhttp://www.imdb.com/title/tt1194417/&quot; rel=&quot;nofollow&quot; target=&quot;_NEW&quot;&gt;\nhttp://www.imdb.com/title/tt1194417/&lt;/a&gt;\n\nFormat : AVI\nFormat/Info : Audio Video Interleave\nFile size : 1.63 GiB\nDuration : 1h 43mn\nOverall bit rate : 2 256 Kbps\nWriting application : Nandub v1.0rc2\nWriting library : Nandub build 1853/release\n\nVideo\nID : 0\nFormat : MPEG-4 Visual\nFormat profile : Advanced Simple@L5\nFormat settings, BVOP : Yes\nFormat settings, QPel : Yes\nFormat settings, GMC : No warppoints\nFormat settings, Matrix : Default (H.263)\nMuxing mode : Packed bitstream\nCodec ID : XVID\nCodec ID/Hint : XviD\nDuration : 1h 43mn\nBit rate : 1 798 Kbps\nWidth : 720 pixels\nHeight : 400 pixels\nDisplay aspect ratio : 16:9\nFrame rate : 25.000 fps\nColor space : YUV\nChroma subsampling : 4:2:0\nBit depth : 8 bits\nScan type : Progressive\nBits/(Pixel*Frame) : 0.250\nStream size : 1.30 GiB (80%)\nWriting library : XviD 1.2.1 (UTC 2008-12-04)\n\nAudio\nID : 1\nFormat : AC-3\nFormat/Info : Audio Coding 3\nMode extension : CM (complete main)\nCodec ID : 2000\nDuration : 1h 43mn\nBit rate mode : Constant\nBit rate : 448 Kbps\nChannel(s) : 6 channels\nChannel positions : Front: L C R, Side: L R, LFE\nSampling rate : 48.0 KHz\nBit depth : 16 bits\nStream size : 332 MiB (20%)\nAlignment : Split accross interleaves\nInterleave, duration : 40 ms (1.00 video frame)\nInterleave, preload duration : 500 ms\n\n\nscreens &lt;a href=&quot;\nhttp://img408.imageshack.us/img408/9776/1xdh2l.jpg&quot; rel=&quot;nofollow&quot; target=&quot;_NEW&quot;&gt;\nhttp://img408.imageshack.us/img408/9776/1xdh2l.jpg&lt;/a&gt;\nhttp://img254.imageshack.us/img254/3817/r1qv34.jpg\nhttp://img72.imageshack.us/img72/2904/nulmow.jpg\nhttp://img684.imageshack.us/img684/4158/yas8bb.jpg\nhttp://img99.imageshack.us/img99/6871/5zr8sm.jpg\n","torrent":{"xt":"urn:btih:925603a88098841f2f13f9b077e2911c0a4873d5","amp;dn":"Casino+Jack+2010+DVDRip+XVID+AC3+HQ+Hive-CM8","amp;tr":["udp%3A%2F%2Ftracker.openbittorrent.com%3A80","udp%3A%2F%2Fopen.demonii.com%3A1337","udp%3A%2F%2Ftracker.coppersurfer.tk%3A6969","udp%3A%2F%2Fexodus.desync.com%3A6969"],"infoHash":"925603a88098841f2f13f9b077e2911c0a4873d5","infoHashBuffer":{"type":"Buffer","data":[146,86,3,168,128,152,132,31,47,19,249,176,119,226,145,28,10,72,115,213]},"announce":[],"urlList":[]}}